<?xml version="1.0" encoding="iso-8859-1"?>
<!-- Uploaded to: SVG Repo, www.svgrepo.com, Generator: SVG Repo Mixer Tools -->
<svg fill="#000000" height="800px" width="800px" version="1.1" id="Layer_1" xmlns="http://www.w3.org/2000/svg" xmlns:xlink="http://www.w3.org/1999/xlink" 
	 viewBox="0 0 512 512" xml:space="preserve">
<g>
	<g>
		<path d="M495.432,128.267H16.568C7.432,128.267,0,135.699,0,144.835v222.33c0,9.136,7.432,16.568,16.568,16.568h478.864
			c9.136,0,16.568-7.432,16.568-16.568v-222.33C512,135.699,504.568,128.267,495.432,128.267z M495.967,367.165
			c0,0.295-0.239,0.534-0.534,0.534H16.568c-0.295,0-0.534-0.239-0.534-0.534v-222.33c0-0.295,0.239-0.534,0.534-0.534h478.864
			c0.295,0,0.534,0.239,0.534,0.534V367.165z"/>
	</g>
</g>
<g>
	<g>
		<path d="M469.779,196.676c-14.44,0-26.188-11.748-26.188-26.188c0-4.427-3.589-8.017-8.017-8.017H76.426
			c-4.427,0-8.017,3.589-8.017,8.017c0,14.44-11.748,26.188-26.188,26.188c-4.427,0-8.017,3.589-8.017,8.017v102.614
			c0,4.427,3.589,8.017,8.017,8.017c14.44,0,26.188,11.748,26.188,26.188c0,4.427,3.589,8.017,8.017,8.017h359.148
			c4.427,0,8.017-3.589,8.017-8.017c0-14.44,11.748-26.188,26.188-26.188c4.427,0,8.017-3.589,8.017-8.017V204.693
			C477.795,200.266,474.206,196.676,469.779,196.676z M83.679,333.495c-3.254-16.866-16.575-30.187-33.441-33.441v-88.107
			c16.866-3.254,30.188-16.575,33.441-33.441h124.792c-22.579,16.83-37.449,45.287-37.449,77.495
			c0,32.208,14.869,60.665,37.449,77.495H83.679z M256,333.495c-38.015,0-68.944-34.764-68.944-77.495s30.928-77.495,68.944-77.495
			s68.944,34.764,68.944,77.495S294.015,333.495,256,333.495z M461.762,300.053c-16.866,3.254-30.188,16.575-33.441,33.441H303.528
			c22.579-16.83,37.449-45.287,37.449-77.495s-14.869-60.665-37.449-77.495h124.792c3.254,16.866,16.575,30.187,33.441,33.441
			V300.053z"/>
	</g>
</g>
<g>
	<g>
		<path d="M42.307,162.472h-0.086c-4.427,0-7.974,3.589-7.974,8.017s3.632,8.017,8.059,8.017s8.017-3.589,8.017-8.017
			S46.734,162.472,42.307,162.472z"/>
	</g>
</g>
<g>
	<g>
		<path d="M469.864,162.472h-0.086c-4.427,0-7.974,3.589-7.974,8.017s3.632,8.017,8.059,8.017s8.017-3.589,8.017-8.017
			S474.292,162.472,469.864,162.472z"/>
	</g>
</g>
<g>
	<g>
		<path d="M469.864,333.495h-0.086c-4.427,0-7.974,3.589-7.974,8.017s3.632,8.017,8.059,8.017s8.017-3.589,8.017-8.017
			S474.292,333.495,469.864,333.495z"/>
	</g>
</g>
<g>
	<g>
		<path d="M42.307,333.495h-0.086c-4.427,0-7.974,3.589-7.974,8.017s3.632,8.017,8.059,8.017s8.017-3.589,8.017-8.017
			S46.734,333.495,42.307,333.495z"/>
	</g>
</g>
<g>
	<g>
		<path d="M110.63,230.881c-13.851,0-25.119,11.268-25.119,25.119c0,13.851,11.268,25.119,25.119,25.119
			s25.119-11.268,25.119-25.119C135.749,242.149,124.481,230.881,110.63,230.881z M110.63,265.086c-5.01,0-9.086-4.076-9.086-9.086
			c0-5.01,4.076-9.086,9.086-9.086s9.086,4.076,9.086,9.086C119.716,261.01,115.64,265.086,110.63,265.086z"/>
	</g>
</g>
<g>
	<g>
		<path d="M401.37,230.881c-13.851,0-25.119,11.268-25.119,25.119c0,13.851,11.268,25.119,25.119,25.119
			c13.851,0,25.119-11.268,25.119-25.119C426.489,242.149,415.22,230.881,401.37,230.881z M401.37,265.086
			c-5.01,0-9.086-4.076-9.086-9.086c0-5.01,4.076-9.086,9.086-9.086c5.01,0,9.086,4.076,9.086,9.086
			C410.455,261.01,406.379,265.086,401.37,265.086z"/>
	</g>
</g>
<g>
	<g>
		<path d="M264.017,250.361v-27.859c5.907,1.936,9.62,5.834,9.62,9.447c0,4.427,3.589,8.017,8.017,8.017s8.017-3.589,8.017-8.017
			c0-12.784-10.768-23.198-25.653-25.984v-1.272c0-4.427-3.589-8.017-8.017-8.017s-8.017,3.589-8.017,8.017v1.273
			c-14.885,2.786-25.653,13.2-25.653,25.984c0,17.862,14.265,25.369,25.653,29.69v27.859c-5.907-1.937-9.62-5.834-9.62-9.448
			c0-4.427-3.589-8.017-8.017-8.017s-8.017,3.589-8.017,8.017c0,12.784,10.768,23.198,25.653,25.984v1.273
			c0,4.427,3.589,8.017,8.017,8.017s8.017-3.589,8.017-8.017v-1.273c14.885-2.786,25.653-13.2,25.653-25.984
			C289.67,262.188,275.405,254.681,264.017,250.361z M247.983,244.148c-7.992-3.916-9.62-7.337-9.62-12.198
			c0-3.614,3.713-7.511,9.62-9.447V244.148z M264.017,289.497v-21.645c7.992,3.916,9.62,7.337,9.62,12.198
			C273.637,283.664,269.923,287.561,264.017,289.497z"/>
	</g>
</g>
</svg>